<svg width="50" height="50" viewBox="0 0 50 50" fill="none" xmlns="http://www.w3.org/2000/svg">
<path d="M25 42C15.6 42 8 34.4 8 25C8 15.6 15.6 8 25 8C34.4 8 42 15.6 42 25C42 34.4 34.4 42 25 42ZM25 10C16.7 10 10 16.7 10 25C10 33.3 16.7 40 25 40C33.3 40 40 33.3 40 25C40 16.7 33.3 10 25 10Z" fill="#F1841F"/>
<mask id="path-2-outside-1_13_3941" maskUnits="userSpaceOnUse" x="18.3999" y="15.1001" width="13" height="20" fill="black">
<rect fill="white" x="18.3999" y="15.1001" width="13" height="20"/>
<path d="M19.7999 19.6001C20.0999 18.8001 20.3999 18.2001 20.9999 17.7001C21.4999 17.2001 22.0999 16.8001 22.8999 16.5001C23.6999 16.2001 24.4999 16.1001 25.3999 16.1001C26.0999 16.1001 26.7999 16.2001 27.3999 16.4001C27.9999 16.6001 28.5999 16.9001 29.0999 17.3001C29.5999 17.7001 29.9999 18.2001 30.1999 18.8001C30.4999 19.4001 30.5999 20.1001 30.5999 20.8001C30.5999 21.8001 30.3999 22.6001 29.9999 23.3001C29.5999 24.0001 28.9999 24.6001 28.3999 25.3001L27.0999 26.6001C26.7999 26.9001 26.4999 27.2001 26.3999 27.5001C26.1999 27.8001 26.0999 28.2001 26.0999 28.6001C25.9999 29.0001 25.9999 29.3001 25.9999 30.1001H24.3999C24.3999 29.3001 24.3999 29.0001 24.4999 28.4001C24.5999 27.9001 24.7999 27.4001 24.9999 26.9001C25.1999 26.5001 25.4999 26.1001 25.8999 25.7001C26.2999 25.3001 26.7999 24.9001 27.2999 24.3001C27.7999 23.8001 28.1999 23.3001 28.4999 22.8001C28.7999 22.3001 28.9999 21.6001 28.9999 21.0001C28.9999 20.5001 28.8999 20.0001 28.6999 19.6001C28.4999 19.2001 28.1999 18.8001 27.8999 18.5001C27.5999 18.2001 27.1999 18.0001 26.6999 17.8001C26.1999 17.6001 25.7999 17.5001 25.2999 17.5001C24.5999 17.5001 23.9999 17.6001 23.4999 17.9001C22.9999 18.1001 22.4999 18.5001 22.1999 18.9001C21.8999 19.3001 21.5999 19.8001 21.3999 20.4001C21.1999 21.0001 20.9999 21.3001 20.9999 22.0001H19.3999C19.3999 21.1001 19.4999 20.4001 19.7999 19.6001ZM25.9999 32.0001V34.0001H23.9999V32.0001H25.9999Z"/>
</mask>
<path d="M19.7999 19.6001C20.0999 18.8001 20.3999 18.2001 20.9999 17.7001C21.4999 17.2001 22.0999 16.8001 22.8999 16.5001C23.6999 16.2001 24.4999 16.1001 25.3999 16.1001C26.0999 16.1001 26.7999 16.2001 27.3999 16.4001C27.9999 16.6001 28.5999 16.9001 29.0999 17.3001C29.5999 17.7001 29.9999 18.2001 30.1999 18.8001C30.4999 19.4001 30.5999 20.1001 30.5999 20.8001C30.5999 21.8001 30.3999 22.6001 29.9999 23.3001C29.5999 24.0001 28.9999 24.6001 28.3999 25.3001L27.0999 26.6001C26.7999 26.9001 26.4999 27.2001 26.3999 27.5001C26.1999 27.8001 26.0999 28.2001 26.0999 28.6001C25.9999 29.0001 25.9999 29.3001 25.9999 30.1001H24.3999C24.3999 29.3001 24.3999 29.0001 24.4999 28.4001C24.5999 27.9001 24.7999 27.4001 24.9999 26.9001C25.1999 26.5001 25.4999 26.1001 25.8999 25.7001C26.2999 25.3001 26.7999 24.9001 27.2999 24.3001C27.7999 23.8001 28.1999 23.3001 28.4999 22.8001C28.7999 22.3001 28.9999 21.6001 28.9999 21.0001C28.9999 20.5001 28.8999 20.0001 28.6999 19.6001C28.4999 19.2001 28.1999 18.8001 27.8999 18.5001C27.5999 18.2001 27.1999 18.0001 26.6999 17.8001C26.1999 17.6001 25.7999 17.5001 25.2999 17.5001C24.5999 17.5001 23.9999 17.6001 23.4999 17.9001C22.9999 18.1001 22.4999 18.5001 22.1999 18.9001C21.8999 19.3001 21.5999 19.8001 21.3999 20.4001C21.1999 21.0001 20.9999 21.3001 20.9999 22.0001H19.3999C19.3999 21.1001 19.4999 20.4001 19.7999 19.6001ZM25.9999 32.0001V34.0001H23.9999V32.0001H25.9999Z" fill="#F1841F"/>
<path d="M20.9999 17.7001L21.32 18.0842L21.3374 18.0697L21.3535 18.0537L20.9999 17.7001ZM30.1999 18.8001L29.7256 18.9582L29.7368 18.9919L29.7527 19.0237L30.1999 18.8001ZM28.3999 25.3001L28.7535 25.6536L28.767 25.6401L28.7795 25.6255L28.3999 25.3001ZM27.0999 26.6001L27.4535 26.9537V26.9537L27.0999 26.6001ZM26.3999 27.5001L26.8159 27.7774L26.8531 27.7217L26.8742 27.6582L26.3999 27.5001ZM26.0999 28.6001L26.585 28.7214L26.5999 28.6617V28.6001H26.0999ZM25.9999 30.1001V30.6001H26.4999V30.1001H25.9999ZM24.3999 30.1001H23.8999V30.6001H24.3999V30.1001ZM24.4999 28.4001L24.0096 28.302L24.008 28.3099L24.0067 28.3179L24.4999 28.4001ZM24.9999 26.9001L24.5527 26.6765L24.5434 26.6951L24.5357 26.7144L24.9999 26.9001ZM27.2999 24.3001L26.9463 23.9465L26.9303 23.9626L26.9158 23.98L27.2999 24.3001ZM23.4999 17.9001L23.6856 18.3643L23.7228 18.3495L23.7572 18.3288L23.4999 17.9001ZM20.9999 22.0001V22.5001H21.4999V22.0001H20.9999ZM19.3999 22.0001H18.8999V22.5001H19.3999V22.0001ZM25.9999 32.0001H26.4999V31.5001H25.9999V32.0001ZM25.9999 34.0001V34.5001H26.4999V34.0001H25.9999ZM23.9999 34.0001H23.4999V34.5001H23.9999V34.0001ZM23.9999 32.0001V31.5001H23.4999V32.0001H23.9999ZM20.2681 19.7757C20.559 18.9999 20.8214 18.4997 21.32 18.0842L20.6798 17.316C19.9784 17.9005 19.6408 18.6003 19.3317 19.4245L20.2681 19.7757ZM21.3535 18.0537C21.8017 17.6054 22.3405 17.2439 23.0755 16.9683L22.7243 16.0319C21.8593 16.3563 21.1981 16.7947 20.6463 17.3465L21.3535 18.0537ZM23.0755 16.9683C23.8024 16.6957 24.5386 16.6001 25.3999 16.6001V15.6001C24.4612 15.6001 23.5974 15.7045 22.7243 16.0319L23.0755 16.9683ZM25.3999 16.6001C26.0559 16.6001 26.7012 16.6943 27.2418 16.8744L27.558 15.9258C26.8986 15.7059 26.1439 15.6001 25.3999 15.6001V16.6001ZM27.2418 16.8744C27.7975 17.0597 28.3423 17.3344 28.7876 17.6905L29.4123 16.9097C28.8575 16.4658 28.2023 16.1405 27.558 15.9258L27.2418 16.8744ZM28.7876 17.6905C29.2322 18.0462 29.5632 18.4711 29.7256 18.9582L30.6742 18.642C30.4366 17.9291 29.9676 17.354 29.4123 16.9097L28.7876 17.6905ZM29.7527 19.0237C30.0046 19.5275 30.0999 20.1409 30.0999 20.8001H31.0999C31.0999 20.0593 30.9952 19.2727 30.6471 18.5765L29.7527 19.0237ZM30.0999 20.8001C30.0999 21.7287 29.9155 22.4401 29.5658 23.052L30.434 23.5482C30.8843 22.7601 31.0999 21.8715 31.0999 20.8001H30.0999ZM29.5658 23.052C29.1971 23.6971 28.6561 24.2329 28.0203 24.9747L28.7795 25.6255C29.3437 24.9672 30.0027 24.303 30.434 23.5482L29.5658 23.052ZM28.0463 24.9465L26.7463 26.2465L27.4535 26.9537L28.7535 25.6536L28.0463 24.9465ZM26.7463 26.2465C26.6 26.3929 26.433 26.5593 26.2908 26.73C26.1507 26.8982 26.0046 27.1048 25.9256 27.342L26.8742 27.6582C26.8952 27.5954 26.9491 27.502 27.059 27.3702C27.1668 27.2409 27.2998 27.1073 27.4535 26.9537L26.7463 26.2465ZM25.9839 27.2227C25.7169 27.6232 25.5999 28.1259 25.5999 28.6001H26.5999C26.5999 28.2743 26.6829 27.977 26.8159 27.7774L25.9839 27.2227ZM25.6148 28.4788C25.497 28.9502 25.4999 29.3164 25.4999 30.1001H26.4999C26.4999 29.2838 26.5028 29.05 26.585 28.7214L25.6148 28.4788ZM25.9999 29.6001H24.3999V30.6001H25.9999V29.6001ZM24.8999 30.1001C24.8999 29.3015 24.9005 29.0379 24.9931 28.4823L24.0067 28.3179C23.8993 28.9623 23.8999 29.2987 23.8999 30.1001H24.8999ZM24.9902 28.4982C25.0796 28.0513 25.2605 27.5948 25.4641 27.0858L24.5357 26.7144C24.3393 27.2054 24.1202 27.7489 24.0096 28.302L24.9902 28.4982ZM25.4471 27.1237C25.6177 26.7826 25.8819 26.4252 26.2535 26.0537L25.5463 25.3465C25.1179 25.775 24.7821 26.2176 24.5527 26.6765L25.4471 27.1237ZM26.2535 26.0537C26.6028 25.7043 27.1681 25.2393 27.684 24.6202L26.9158 23.98C26.4317 24.5609 25.997 24.8959 25.5463 25.3465L26.2535 26.0537ZM27.6535 24.6537C28.1765 24.1306 28.6037 23.5989 28.9286 23.0573L28.0712 22.5428C27.7961 23.0013 27.4233 23.4696 26.9463 23.9465L27.6535 24.6537ZM28.9286 23.0573C29.2743 22.4813 29.4999 21.6926 29.4999 21.0001H28.4999C28.4999 21.5075 28.3255 22.1189 28.0712 22.5428L28.9286 23.0573ZM29.4999 21.0001C29.4999 20.44 29.3889 19.8601 29.1471 19.3765L28.2527 19.8237C28.4109 20.1401 28.4999 20.5602 28.4999 21.0001H29.4999ZM29.1471 19.3765C28.9207 18.9236 28.5874 18.4805 28.2535 18.1465L27.5463 18.8537C27.8124 19.1197 28.0791 19.4766 28.2527 19.8237L29.1471 19.3765ZM28.2535 18.1465C27.8775 17.7706 27.3963 17.5401 26.8856 17.3359L26.5142 18.2643C27.0035 18.4601 27.3223 18.6296 27.5463 18.8537L28.2535 18.1465ZM26.8856 17.3359C26.3458 17.1199 25.8814 17.0001 25.2999 17.0001V18.0001C25.7184 18.0001 26.054 18.0803 26.5142 18.2643L26.8856 17.3359ZM25.2999 17.0001C24.5593 17.0001 23.8543 17.1044 23.2427 17.4714L23.7572 18.3288C24.1455 18.0958 24.6405 18.0001 25.2999 18.0001V17.0001ZM23.3142 17.4359C22.7245 17.6717 22.1519 18.1307 21.7999 18.6001L22.5999 19.2001C22.8479 18.8695 23.2753 18.5285 23.6856 18.3643L23.3142 17.4359ZM21.7999 18.6001C21.4764 19.0315 21.1466 19.5789 20.9256 20.242L21.8742 20.5582C22.0532 20.0213 22.3234 19.5687 22.5999 19.2001L21.7999 18.6001ZM20.9256 20.242C20.7532 20.7589 20.4999 21.1924 20.4999 22.0001H21.4999C21.4999 21.4078 21.6466 21.2412 21.8742 20.5582L20.9256 20.242ZM20.9999 21.5001H19.3999V22.5001H20.9999V21.5001ZM19.8999 22.0001C19.8999 21.1462 19.9935 20.5078 20.2681 19.7757L19.3317 19.4245C19.0063 20.2924 18.8999 21.054 18.8999 22.0001H19.8999ZM25.4999 32.0001V34.0001H26.4999V32.0001H25.4999ZM25.9999 33.5001H23.9999V34.5001H25.9999V33.5001ZM24.4999 34.0001V32.0001H23.4999V34.0001H24.4999ZM23.9999 32.5001H25.9999V31.5001H23.9999V32.5001Z" fill="#F1841F" mask="url(#path-2-outside-1_13_3941)"/>
</svg>
